PathFileType	4	(X/Y/Z)	./resultDataOpenSim/trcMotMarkerGrf/sub09/qtm-14-07.trc
DataRate	CameraRate	NumFrames	NumMarkers	Units	OrigDataRate	OrigDataStartFrame	OrigNumFrames
250.000000	250.000000	7	24	m	250.000000	243	485
Frame#	Time	L.Toe.Tip			R.Toe.Tip			L.Ankle.Lat			R.Ankle.Lat			L.Ankle.Med			R.Ankle.Med			L.Heel			R.Heel			L.Knee.Lat			R.Knee.Lat			L.Knee.Med			R.Knee.Med			L.Thigh.Upper			R.Thigh.Upper			L.ASIS			R.ASIS			V.Sacral			L.Acromium			R.Acromium			C7			L.Elbow			R.Elbow			L.Wrist.Lat			R.Wrist.Lat
		X1	Y1	Z1	X2	Y2	Z2	X3	Y3	Z3	X4	Y4	Z4	X5	Y5	Z5	X6	Y6	Z6	X7	Y7	Z7	X8	Y8	Z8	X9	Y9	Z9	X10	Y10	Z10	X11	Y11	Z11	X12	Y12	Z12	X13	Y13	Z13	X14	Y14	Z14	X15	Y15	Z15	X16	Y16	Z16	X17	Y17	Z17	X18	Y18	Z18	X19	Y19	Z19	X20	Y20	Z20	X21	Y21	Z21	X22	Y22	Z22	X23	Y23	Z23	X24	Y24	Z24

243	0.968	0.22776931	-0.033234528	0.024439952	0.6219326	0.091054711	0.11099851	0.086253926	0.027503479	-0.026388119	0.47461435	0.094123768	0.13053834	0.10925787	0.047791593	0.068061647	0.49309147	0.13008294	0.037929173	0.012295993	0.0064856486	0.018051282	0.41382914	0.063500545	0.075333554	0.2006354	0.43018213	-0.087144873	0.5489957	0.54104572	0.17635219	0.19884818	0.43349434	0.037415282	0.54570382	0.52755328	0.051443939	0.28086393	0.84586254	-0.14253633	0.29159399	0.85451861	0.22678971	0.37747366	0.92347058	-0.09146525	0.36278969	0.93899932	0.15678446	0.20787644	0.98704845	0.032968211	0.37656319	1.3831319	-0.12248618	0.31323962	1.4019366	0.20026517	0.27231396	1.4379605	0.023786469	0.28317083	1.0194899	-0.19510877	0.14530649	1.0868817	0.27751202	0.51693495	0.87935075	-0.18479249	0.22231468	0.82979926	0.32402341
244	0.972	0.22785691	-0.033224079	0.02462636	0.64272601	0.091985496	0.10977856	0.086213154	0.028377214	-0.025375618	0.49516824	0.091943424	0.12876038	0.11009066	0.048574679	0.068731181	0.51319066	0.12856461	0.03639849	0.012553399	0.0076748993	0.019478998	0.43550629	0.060052324	0.07313988	0.20156331	0.43078448	-0.087185451	0.5563908	0.54143382	0.17670547	0.20046925	0.43382008	0.03790564	0.5532239	0.52767896	0.051636009	0.2861455	0.84536404	-0.1424761	0.29807161	0.85425286	0.22687419	0.38384684	0.92331097	-0.08973848	0.36947509	0.93836701	0.15660163	0.21465221	0.98653087	0.033193999	0.38247904	1.3828861	-0.12240414	0.32027794	1.401237	0.20050944	0.27872621	1.4372948	0.024196333	0.29086602	1.0186028	-0.19511456	0.15198794	1.0866482	0.27776335	0.52701113	0.88224725	-0.18339981	0.22757614	0.82929534	0.32451324
245	0.976	0.22793385	-0.033230393	0.024841203	0.66351648	0.093076963	0.10858334	0.086196579	0.029244353	-0.024401659	0.51562622	0.089938209	0.1268747	0.1108703	0.049298069	0.069425233	0.53330597	0.1272462	0.034828292	0.012816902	0.0088505847	0.020872543	0.45717656	0.056933358	0.070862442	0.20260669	0.43131251	-0.087159649	0.56368381	0.54158776	0.17701687	0.20230612	0.43428675	0.038134742	0.56070621	0.52762905	0.051867883	0.29142429	0.84475398	-0.14241203	0.30450732	0.85385079	0.22697241	0.39033853	0.92307789	-0.087778862	0.37618508	0.93759114	0.15643728	0.22146348	0.98598527	0.033424822	0.38840679	1.3825454	-0.12231533	0.32731606	1.400438	0.20075026	0.28520236	1.4365324	0.024669061	0.29859509	1.017617	-0.19509361	0.15872376	1.0863033	0.27804371	0.53703287	0.88509726	-0.18201835	0.23288074	0.82869728	0.32503966
246	0.98	0.22798559	-0.033249714	0.025043315	0.68431879	0.094314459	0.10735651	0.086217055	0.030075357	-0.023458454	0.53605636	0.088074412	0.12488259	0.11159704	0.049956593	0.070159893	0.55339853	0.12615749	0.033224006	0.013080905	0.010008264	0.022203191	0.47880123	0.054152342	0.068527541	0.20375517	0.43175769	-0.087091622	0.57082314	0.54153203	0.1772224	0.2042832	0.43475625	0.038192815	0.56816571	0.52741278	0.052129867	0.29668673	0.84402098	-0.14238007	0.31090851	0.85331351	0.22708442	0.39678795	0.92269225	-0.085815353	0.38292952	0.93667313	0.15628941	0.22815645	0.98539222	0.033452464	0.39435322	1.3821053	-0.1222218	0.33436938	1.3995371	0.20098677	0.29174332	1.4356758	0.025197399	0.30636317	1.0165338	-0.19505662	0.16548118	1.0858418	0.27834372	0.54700823	0.88790103	-0.1806515	0.23822953	0.82800612	0.325605
247	0.984	0.22798991	-0.033273251	0.025167269	0.70505305	0.095655876	0.10606982	0.08628222	0.030851092	-0.022531396	0.55650498	0.08639049	0.12287562	0.1122925	0.050554458	0.070924445	0.57339356	0.12533795	0.031620817	0.013343819	0.011142239	0.023460945	0.50032828	0.051713081	0.06616229	0.20503723	0.43209939	-0.086994622	0.57777579	0.54127722	0.17735715	0.20639759	0.4351035	0.038208633	0.57566045	0.52704627	0.052371791	0.30190548	0.84315932	-0.1423636	0.31727832	0.85264039	0.22720886	0.40284542	0.92199138	-0.084365678	0.38971349	0.93561985	0.15615507	0.23442993	0.98477478	0.032850118	0.40032493	1.3815647	-0.12212675	0.34144168	1.398538	0.20121679	0.2983169	1.434729	0.025756571	0.31416653	1.0153581	-0.19500408	0.1721874	1.0852686	0.27864592	0.55694071	0.89065593	-0.1793043	0.24361355	0.82723202	0.32621128
248	0.988	0.22793612	-0.033294277	0.025177156	0.72560311	0.097069988	0.10473038	0.086392558	0.031559845	-0.021613698	0.57692563	0.084990185	0.12098099	0.11296899	0.051102823	0.071701385	0.59322128	0.12479818	0.030055691	0.013607674	0.012246164	0.024648005	0.52173181	0.049608484	0.063785037	0.20651637	0.432315	-0.086859194	0.58456701	0.54082071	0.17752017	0.20865597	0.43530645	0.038257232	0.58330165	0.52655754	0.052474329	0.30704988	0.84217426	-0.14231246	0.32364031	0.85183336	0.22735823	0.40818464	0.92083007	-0.083948445	0.39653105	0.93443874	0.15602466	0.24002529	0.98415981	0.03126692	0.40632693	1.3809272	-0.12203408	0.34852009	1.3974462	0.20143831	0.30490643	1.433703	0.026364647	0.32199676	1.0140901	-0.19493021	0.17875252	1.0846	0.27893088	0.56682506	0.89335713	-0.17798169	0.24901222	0.82638155	0.32685314
249	0.992	0.22785106	-0.033316375	0.025136259	0.74591355	0.098561649	0.10333338	0.086544005	0.032197839	-0.020709705	0.59710903	0.084011864	0.11930312	0.1136179	0.05160532	0.072483931	0.61285023	0.12451141	0.028544879	0.013876247	0.013314518	0.025769868	0.54301014	0.047826759	0.061419431	0.20823655	0.4323938	-0.086677167	0.59123863	0.54015591	0.17777205	0.21105479	0.43539637	0.038377513	0.59113145	0.52596977	0.052345176	0.3120829	0.84108471	-0.14216891	0.3300285	0.85090076	0.22754839	0.41288909	0.91926264	-0.084518208	0.40337213	0.93313589	0.15588306	0.24510177	0.9835221	0.028986478	0.41236073	1.3802006	-0.12194901	0.35558756	1.3962648	0.201654	0.31151223	1.4326155	0.027034952	0.32984755	1.0127291	-0.19483119	0.18515938	1.0838484	0.27919367	0.57665617	0.89600271	-0.17668355	0.25444406	0.82545067	0.3275307
